<svg width="129" height="134" viewBox="0 0 129 134" fill="none" xmlns="http://www.w3.org/2000/svg">
<path fill-rule="evenodd" clip-rule="evenodd" d="M64.0939 0L65.4428 1.34884C68.8038 4.7099 74.6868 10.2207 80.9133 14.2927C96.2255 19.4514 108.388 31.46 113.756 46.6747C117.841 52.9799 123.439 58.9592 126.839 62.3586L128.187 63.7075L126.839 65.0563C123.616 68.2793 118.416 73.8212 114.404 79.7613C107.766 101.24 87.7525 116.846 64.0937 116.846C40.2801 116.846 20.1591 101.035 13.6551 79.3387C9.66229 73.5164 4.52479 68.2323 1.34884 65.0563L0 63.7075L1.34884 62.3586C4.74828 58.9592 10.3468 52.9799 14.4316 46.6747C19.8 31.4598 31.9623 19.4511 47.2749 14.2924C53.5013 10.2205 59.3841 4.70983 62.7451 1.34884L64.0939 0ZM56.6486 12.0712C57.7983 11.9084 58.96 11.7828 60.1323 11.6956L64.0937 8.03892L68.0552 11.6956C69.2277 11.7828 70.3895 11.9085 71.5393 12.0712C68.6493 9.68741 66.079 7.30664 64.0939 5.37652C62.1088 7.30663 59.5385 9.68737 56.6486 12.0712ZM12.0323 56.3093C9.66149 59.18 7.29613 61.7332 5.37652 63.7075C7.32428 65.7107 9.58101 68.0736 11.8536 70.7863C11.7367 69.8495 11.6443 68.9052 11.5773 67.9538L7.65741 63.7073L11.6639 59.3669C11.7574 58.3389 11.8805 57.3194 12.0323 56.3093ZM116.334 70.7863C118.606 68.0736 120.863 65.7107 122.811 63.7075C120.891 61.7332 118.526 59.18 116.155 56.3093C116.329 57.4686 116.466 58.6403 116.563 59.823L120.149 63.7073L116.64 67.5086C116.571 68.6107 116.469 69.7036 116.334 70.7863ZM112.927 64.1973C112.927 91.1672 91.0637 113.031 64.0937 113.031C37.1238 113.031 15.2604 91.1672 15.2604 64.1973C15.2604 37.2273 37.1238 15.3639 64.0937 15.3639C91.0637 15.3639 112.927 37.2273 112.927 64.1973Z" fill="#635189"/>
<path d="M109.562 63.8159C109.562 89.1002 89.0655 109.597 63.7812 109.597C38.497 109.597 18 89.1002 18 63.8159C18 38.5316 38.497 18.0347 63.7812 18.0347C89.0655 18.0347 109.562 38.5316 109.562 63.8159Z" fill="#2C2542"/>
<path fill-rule="evenodd" clip-rule="evenodd" d="M20.3867 76.3018C25.8216 57.0861 43.4889 43.0063 64.4447 43.0063C85.4004 43.0063 103.068 57.0861 108.503 76.3018C103.068 95.5175 85.4004 109.597 64.4447 109.597C43.4889 109.597 25.8216 95.5175 20.3867 76.3018Z" fill="url(#paint0_radial_857_716)"/>
<path fill-rule="evenodd" clip-rule="evenodd" d="M23.4131 44.498C30.6432 29.3017 46.1387 18.7976 64.0875 18.7976C81.5113 18.7976 96.6232 28.6962 104.106 43.1766C96.4979 57.9074 81.1273 67.9778 63.4046 67.9778C46.217 67.9778 31.2416 58.5063 23.4131 44.498Z" fill="url(#paint1_radial_857_716)"/>
<path fill-rule="evenodd" clip-rule="evenodd" d="M63.7812 106.545C87.3799 106.545 106.51 87.4146 106.51 63.8159C106.51 40.2173 87.3799 21.0868 63.7812 21.0868C40.1826 21.0868 21.0521 40.2173 21.0521 63.8159C21.0521 87.4146 40.1826 106.545 63.7812 106.545ZM63.7812 109.597C89.0655 109.597 109.562 89.1002 109.562 63.8159C109.562 38.5316 89.0655 18.0347 63.7812 18.0347C38.497 18.0347 18 38.5316 18 63.8159C18 89.1002 38.497 109.597 63.7812 109.597Z" fill="#635189"/>
<path d="M92.0098 88L114.519 110.509L92.0098 133.018L69.5007 110.509L92.0098 88Z" fill="#2C2542"/>
<path fill-rule="evenodd" clip-rule="evenodd" d="M114.519 110.509L92.0101 88L69.501 110.509L92.0101 133.018L114.519 110.509Z" fill="url(#paint2_radial_857_716)"/>
<path fill-rule="evenodd" clip-rule="evenodd" d="M110.203 110.509L92.0098 92.3163L73.8169 110.509L92.0098 128.702L110.203 110.509ZM92.0098 88L69.5007 110.509L92.0098 133.018L114.519 110.509L92.0098 88Z" fill="#635189"/>
<path d="M38.0098 88L60.5189 110.509L38.0098 133.018L15.5007 110.509L38.0098 88Z" fill="#2C2542"/>
<path fill-rule="evenodd" clip-rule="evenodd" d="M60.5192 110.509L38.0101 88L15.501 110.509L38.0101 133.018L60.5192 110.509Z" fill="url(#paint3_radial_857_716)"/>
<path fill-rule="evenodd" clip-rule="evenodd" d="M56.2026 110.509L38.0098 92.3163L19.8169 110.509L38.0098 128.702L56.2026 110.509ZM38.0098 88L15.5007 110.509L38.0098 133.018L60.5189 110.509L38.0098 88Z" fill="#635189"/>
<defs>
<radialGradient id="paint0_radial_857_716" cx="0" cy="0" r="1" gradientUnits="userSpaceOnUse" gradientTransform="translate(64.4447 89.5622) rotate(90) scale(48.672 47.8622)">
<stop stop-color="#74568C" stop-opacity="0.6"/>
<stop offset="0.46875" stop-color="#52326C" stop-opacity="0.265605"/>
<stop offset="1" stop-color="#3A2B67" stop-opacity="0"/>
</radialGradient>
<radialGradient id="paint1_radial_857_716" cx="0" cy="0" r="1" gradientUnits="userSpaceOnUse" gradientTransform="translate(63.4042 22.1965) rotate(90) scale(47.8622 47.8624)">
<stop stop-color="white" stop-opacity="0.2"/>
<stop offset="0.0001" stop-color="#7E73AD" stop-opacity="0.4"/>
<stop offset="1" stop-color="#7E73AD" stop-opacity="0"/>
</radialGradient>
<radialGradient id="paint2_radial_857_716" cx="0" cy="0" r="1" gradientUnits="userSpaceOnUse" gradientTransform="translate(93.5362 93.2617) rotate(90) scale(66.924 49.7343)">
<stop stop-color="#74568C" stop-opacity="0.6"/>
<stop offset="0.46875" stop-color="#52326C" stop-opacity="0.265605"/>
<stop offset="1" stop-color="#3A2B67" stop-opacity="0"/>
</radialGradient>
<radialGradient id="paint3_radial_857_716" cx="0" cy="0" r="1" gradientUnits="userSpaceOnUse" gradientTransform="translate(39.5362 93.2617) rotate(90) scale(66.924 49.7343)">
<stop stop-color="#74568C" stop-opacity="0.6"/>
<stop offset="0.46875" stop-color="#52326C" stop-opacity="0.265605"/>
<stop offset="1" stop-color="#3A2B67" stop-opacity="0"/>
</radialGradient>
</defs>
</svg>
